/* XPM */
static char *_bbd4b00908d4f77be4e5166b6c84cadN3quUIjcG2Uhr9WY[] = {
/* columns rows colors chars-per-pixel */
"50 50 3 1 ",
"  c #494949",
". c #5A5A59",
"X c #696967",
/* pixels */
"..................................................",
"..................................................",
"..................................................",
"...........   ....................................",
"...........   ....................................",
"...........  .....................................",
"...X   ...........................................",
"...X   ...........................................",
"...X   .....................XX....................",
"...X   .....................XX....................",
"............ .....................................",
"..................................................",
"..................................................",
"......................... ........................",
"..................................................",
"..................X.............X  ...............",
"................................X  ...............",
".............................  ...................",
"............................X  ...................",
"............................X  ...................",
"..................................................",
"..................................................",
"..................................................",
"..................................................",
"..................................................",
"..................................................",
"..................................................",
"..................................................",
"..................................................",
"..................................................",
"..................................................",
"..................................................",
"..................................................",
"..................................................",
"..................................................",
"...............................XXX................",
"...............................XXX................",
"..................................................",
".......................................... .......",
"..................................................",
"..................................................",
"..................................................",
"................  ................................",
"................  ................................",
".............  ...................................",
".............  .................................  ",
"..X.....................................  ......  ",
".......................................   ........",
"........ ......XX.......................  ........",
"...............XX................................."
};
