/* XPM */
static char *bcb4687fbbe7474cd72bead98d252578PccaZPWjg8QHVG9C[] = {
/* columns rows colors chars-per-pixel */
"30 27 16 1 ",
"  c #E8B6AC",
". c #F6E4AE",
"X c #F7D76E",
"o c #CB9500",
"O c #F8BB0B",
"+ c #6D4C41",
"@ c #B88279",
"# c #604800",
"$ c None",
"% c black",
"& c black",
"* c black",
"= c black",
"- c black",
"; c black",
": c black",
/* pixels */
"#####$$$$$$$######$$$$$$$#####",
"#XOo#++++++#..OOXo#++++++#XOo#",
"#OOo#      #.X##Xo#      #OOo#",
"#Ooo#@@@@@@#.X##Xo#@@@@@@#Ooo#",
"#####++++++#.OXXoo#++++++#####",
"#####++++++#Oooooo#++++++#####",
"$#oo#@+@+@+@#Oooo#@+@++@+#oo#$",
"$#o##+@+++@+#####+@@++++@#o##$",
"$##o#@+++++#OOOOo#++++@++##o#$",
"$####++####OXOXXOo#@@++++####$",
"$####+#OOOOOoOOOOo#####@+####$",
"$#####OXOOooOooooX#OOOO#+####$",
"$#####OOXXXOOoOOX#OXOOoo#####$",
"######oOOOOOoooo##OOXXXo######",
"#Ooo#++++++++++++++++++++#Ooo#",
"#OOo#@@@@@@@@@@@@@@@@@@@@#OOo#",
"#OOo#@@@@@@@@@@@@@@@@@@@@#OOo#",
"#OOo#+++++@@@@@@@@@@@@@@@#OOo#",
"#OOo#@@@@@@@@@@@@@@@@@@@@#OOo#",
"#OOo#@++@@@@@+++++@@@@@@@#OOo#",
"#OOo#@@@@@@@@@@@@@@@@@@@@#OOo#",
"#OOo#@@@@@@@@@@@++++++++@#OOo#",
"#OOo#@@@@@@@@@@@@@@@@@@@@#OOo#",
"#OOo#@@@+++++@@+++@@@@@@@#OOo#",
"#OOo#@@@@@@@@@@@@@@@@@@@@#OOo#",
"#OOo#++++++++++++++++++++#OOo#",
"#####$$$$$$$$$$$$$$$$$$$$#####"
};
