/* XPM */
static char *_acf021bf1af4ecaa586533a2009eec3gnJDAgeMdIThnpkV[] = {
/* columns rows colors chars-per-pixel */
"50 50 46 1 ",
"  c #010000",
". c #030202",
"X c #050302",
"o c #070504",
"O c #080504",
"+ c #0B0706",
"@ c #0D0806",
"# c #0F0A08",
"$ c #130D0A",
"% c #130E0B",
"& c #140F0C",
"* c #15100C",
"= c #19130F",
"- c #1A1310",
"; c #1C1612",
": c #1F1713",
"> c #211A15",
", c #241C18",
"< c #251D18",
"1 c #281F1A",
"2 c #29201B",
"3 c #2B221D",
"4 c #2E251F",
"5 c #2F2520",
"6 c #302621",
"7 c #322822",
"8 c #332923",
"9 c #342A23",
"0 c #352A24",
"q c #372C26",
"w c #392E27",
"e c #3B2F28",
"r c #3C3029",
"t c #3F332C",
"y c #43362E",
"u c #453730",
"i c #453830",
"p c #473932",
"a c #493B33",
"s c #4A3C34",
"d c #4E3F37",
"f c #4F4037",
"g c #504138",
"h c #514138",
"j c #53443B",
"k c #54443B",
/* pixels */
"kkkkkkkkkkkkkkkkkkkkkkkkkkkkkkkkkkkkkkkkkkkkkkkkkk",
"kkkkkkkkkkkkkkkkkkkkkkkkkkkkkkkkkkkkkkkkkkkkkkkkkk",
"kkkkkkkkkkkkkkkkkkkkkkkkkkkkkkkkkkkkkkkkkkkkkkkkkk",
"kkkkkkkkkkkkkkkkkkkkkkkkkkkkkkkkkkkkkkkkkkkkkkkkkk",
"kkkkkkkkkkkkkkkkkkkkkkkkkkkkkkkkkkkkkkkkkkkkkkkkkk",
"kkkkkkkkkkkkkkkkkkkkkkkkkkkkkkkkkkkkkkkkkkkkkkkkkk",
"kkkkkkkkkkkkkkkkkkkkkkkkkkkkkkkkkkkkkkkkkkkkkkkkkk",
"kkkkkkkkkkkkkkkkkkkkkkkkkkkkkkkkkkkkkkkkkkkkkkkkkk",
"kkkkkkkkkkkkkkkkkkkkkkkkkkkkkkkkkkkkkkkkkkkkkkkkkk",
"kkkkkkkkkkkkkkkkkkkkkkkkkkkkkkkkkkkkkkkkkkkkkkkkkk",
"kkkkkkkkkkkkkkkkkkkkkkkkkkkkkkkkkkkkkkkkkkkkkkkkkk",
"kkkkkkkkkkkkkkkkkkkkkkkkkkkkkkkkkkkkkkkkkkkkkkkkkk",
"kkkkkkkkkkkkkkkkkkkkkkkkkkkkkkkkkkkkkkkkkkkkkkkkkk",
"kkkkkkkkkkkkkkkkkkkkkkkkkkkkkkkkkkkkkkkkkkkkkkkkkk",
"kkkkkkkkkkkkkkkkkkkkkkkkkkkkkkkkkkkkkkkkkkkkkkkkkk",
"kkkkkkkkkkkkkkkkkkkkkkkkkkkkkkkkkkkkkkkkkkkkkkkkkk",
"kkkkkkkkkkkkkkkjkkkhsutreerrushjjjjkkkkkkkkkkkkkkk",
"kkkkkkkkkkkkkkkhy02>;*$#@@#$*;><8ydkkkkkkkkkkkkkkk",
"kkkkkkkkkkkkhi6>*o              o$>5yhkkkkkkkkkkkk",
"kkkkkkkkkkhy3*O                    X&1rhkkkkkkkkkk",
"kkkkkkkkjs5&                          %3ikjkkkkkkk",
"kkkkkkkhr:X                             ;ehkkkkkkk",
"kkkkkkfw$                                @7fkkkkkk",
"kkkkjh0O                                  o6dkkkkk",
"kkkkhe#                                    O0hkkkk",
"kkkky*                                      $tkkkk",
"kkkd3                                        ,sjkk",
"kkkt$                                        oejkk",
"kkh5                                          <hkk",
"khs>                                          ;skk",
"kku-                                          $ykk",
"kky&                                          @rkk",
"kku*                                          #rkk",
"kku;                                          *tkk",
"kks<                                          ;skk",
"kkj5                                          1hkk",
"kkky$                                        #rkkk",
"kkkf5                                        <hkkk",
"kkkki;                                      &yjjkk",
"kkkkht$                                    #ehkjkk",
"kkkkkhr&                                  O0hkkkkk",
"kkkkkjhr*                                $ehkkkkkk",
"kkkkkkkhi<o                            X>thkkkkkkk",
"kkkkkkkkjs0;                          -6ikkkkkkkkk",
"kkkkkkkkkkhi8;O                    o:5ihkkkkkkkkkk",
"kkkkkkkkkkkkhse3;#              o;30ihjjkkkkkkkkkk",
"kkkkkkkkkkkkkkhhir76,:**$$**:<36eidjkkkkkkkkkkkkkk",
"kkkkkkkkkkkkkkkkjjjhsiutttyuidhkjkkjkkkkkkkkkkkkkk",
"kkkkkkkkkkkkkkkkkkkkkkkkkkkkkkkkkkkkkkkkkkkkkkkkkk",
"kkkkkkkkkkkkkkkkkkkkkkkkkkkkkkkkkkkkkkkkkkkkkkkkkk"
};
