/* XPM */
static char *_f73cc0bad6546a1c5bae084164ca4f2fHJtCQqZRwe3sxYi[] = {
/* columns rows colors chars-per-pixel */
"32 48 20 1 ",
"  c None",
". c black",
"X c #222034",
"o c #323C39",
"O c #45283C",
"+ c #6D3632",
"@ c #663931",
"# c #524B24",
"$ c #3F3F74",
"% c #AC3232",
"& c #8F563B",
"* c #8A6F30",
"= c #D95763",
"- c #D9A066",
"; c #306082",
": c #5B6EE1",
"> c #D77BBA",
", c #639BFF",
"< c #EEC39A",
"1 c #CBDBFC",
/* pixels */
"                                ",
"                                ",
"                                ",
"                                ",
"                                ",
"                                ",
"                                ",
"                                ",
"                                ",
"                                ",
"                                ",
"                                ",
"        &@   @@@@O              ",
"        @&@@@&&&&&@@            ",
"        @&&&O&&&@@&&@           ",
"        @@&O&&&@@&&&&@          ",
"         @O&&&@@&&&&&@          ",
"        .O@&@@&&&&&&&&@         ",
"        .O@@O&&&&@@-@&@         ",
"        .O.OO&&..<<&..O         ",
"        ...OO&@--<<<--O         ",
"         ..O-@-@.---.-&         ",
"         ..O@--.1---1@&         ",
"         .%=&<-.:-==:@&         ",
"         .=@@<<<-%=1%<&         ",
"         .=@-<>>-===.>&         ",
"          .%-<>><+..+>&         ",
"           .&-<<<---<<&         ",
"            +-<<<&..<-&         ",
"            .O-<<<<<<&          ",
"           .#.O@----&@          ",
"          .###O;OOO;#X          ",
"         .;:O#*O,,;,##X         ",
"         .O,,O#*;,;,*#;X        ",
"        .;;O,.#*#;;;*#OX        ",
"        .;;:...**#o#*#,X        ",
"         .&&..#***o**#&O        ",
"         O&&..#***o**#&O        ",
"          O&-O#***o**#&-O       ",
"          O&---O**o**#--O       ",
"           O---O##X###--O       ",
"           O---OXXXXXX--O       ",
"            OOOXX XXXXOO        ",
"             .$X   X$X          ",
"             ..X   XXX          ",
"             .X    X.           ",
"            ...    ...          ",
"           .....   ....         "
};
